<?xml version="1.0" standalone="no"?>
<!DOCTYPE svg PUBLIC "-//W3C//DTD SVG 1.1//EN" "http://www.w3.org/Graphics/SVG/1.1/DTD/svg11.dtd" >
<svg xmlns="http://www.w3.org/2000/svg">
<metadata></metadata>
<defs>
<font id="mons_olympiaregular" horiz-adv-x="1500" >
<font-face units-per-em="2048" ascent="1638" descent="-410" />
<missing-glyph horiz-adv-x="800" />
<glyph unicode="&#xd;" horiz-adv-x="100" />
<glyph horiz-adv-x="100" />
<glyph horiz-adv-x="100" />
<glyph unicode=" "  horiz-adv-x="800" />
<glyph unicode="&#x09;" horiz-adv-x="800" />
<glyph unicode="&#xa0;" horiz-adv-x="800" />
<glyph unicode="!" horiz-adv-x="350" d="M0 50v150q0 50 50 50h150q50 0 50 -50v-150q0 -50 -50 -50h-150q-50 0 -50 50zM0 450v900q0 50 50 50h150q50 0 50 -50v-900q0 -50 -50 -50h-150q-50 0 -50 50z" />
<glyph unicode="&#x22;" horiz-adv-x="700" d="M0 900v450q0 50 50 50h150q50 0 50 -50v-150q0 -50 -50 -100zM350 900v450q0 50 50 50h150q50 0 50 -50v-150q0 -50 -50 -100z" />
<glyph unicode="#" horiz-adv-x="1200" d="M0 400v150q0 50 50 50h150v200h-150q-50 0 -50 50v150q0 50 50 50h150v150q0 50 50 50h150q50 0 50 -50v-150h200v150q0 50 50 50h150q50 0 50 -50v-150h150q50 0 50 -50v-150q0 -50 -50 -50h-150v-200h150q50 0 50 -50v-150q0 -50 -50 -50h-150v-150q0 -50 -50 -50h-150 q-50 0 -50 50v150h-200v-150q0 -50 -50 -50h-150q-50 0 -50 50v150h-150q-50 0 -50 50zM450 600h200v200h-200v-200z" />
<glyph unicode="$" d="M0 150v150q0 50 50 50h525v225h-525q-50 0 -50 50v275q0 166 117 283t283 117h175v50q0 50 50 50h150q50 0 50 -50v-50h525q50 0 50 -50v-150q0 -50 -50 -50h-525v-225h525q50 0 50 -50v-275q0 -166 -117 -283t-283 -117h-175v-50q0 -50 -50 -50h-150q-50 0 -50 50v50 h-525q-50 0 -50 50zM250 825h325v225h-175q-62 0 -106 -44t-44 -106v-75zM825 350h175q62 0 106 44t44 106v75h-325v-225z" />
<glyph unicode="%" horiz-adv-x="1400" d="M0 1000q0 166 117 283t283 117t283 -117q25 -25 44 -52l48 119q25 50 50 50h175q50 0 50 -50l-213 -555q30 5 63 5q166 0 283 -117t117 -283t-117 -283t-283 -117t-283 117q-16 16 -29 32l-38 -99q-25 -50 -50 -50h-200q-50 0 -50 50l225 556q-36 -6 -75 -6 q-166 0 -283 117t-117 283zM250 1000q0 -62 44 -106t106 -44t106 44t44 106t-44 106t-106 44t-106 -44t-44 -106zM750 400q0 -62 44 -106t106 -44t106 44t44 106t-44 106t-106 44t-106 -44t-44 -106z" />
<glyph unicode="&#x26;" d="M0 400v25q0 160 109 275q-109 115 -109 275v25q0 166 117 283t283 117h750q50 0 50 -50v-150q0 -50 -50 -50h-750q-62 0 -106 -44t-44 -100v-31q0 -62 44 -106t106 -44l750 -1v76q0 50 50 50h150q50 0 50 -50v-500q0 -166 -117 -283t-283 -117h-600q-166 0 -283 117 t-117 283zM250 400q0 -62 44 -106t106 -44h600q62 0 106 44t44 106v175h-750q-62 0 -106 -44t-44 -100v-31z" />
<glyph unicode="'" horiz-adv-x="350" d="M0 900v450q0 50 50 50h150q50 0 50 -50v-150q0 -50 -50 -100z" />
<glyph unicode="(" horiz-adv-x="600" d="M0 250v900q0 166 117 283t283 117h50q50 0 50 -50v-150q0 -50 -50 -50h-50q-62 0 -106 -44t-44 -106v-900q0 -62 44 -106t106 -44h50q50 0 50 -50v-150q0 -50 -50 -50h-50q-166 0 -283 117t-117 283z" />
<glyph unicode=")" horiz-adv-x="600" d="M0 50q0 50 50 50h50q62 0 106 44t44 106v900q0 62 -44 106t-106 44h-50q-50 0 -50 50v150q0 50 50 50h50q166 0 283 -117t117 -283v-900q0 -166 -117 -283t-283 -117h-50q-50 0 -50 50v150z" />
<glyph unicode="*" horiz-adv-x="1200" d="M0 1028q0 10 4 22l46 142q12 36 41 36q10 0 22 -4l312 -101v328q0 50 50 50h150q50 0 50 -50v-328l312 101q12 4 22 4q29 0 41 -36l46 -142q4 -12 4 -22q0 -30 -36 -41l-312 -102l193 -265q12 -17 12 -32q0 -21 -23 -38l-121 -88q-17 -12 -32 -12q-21 0 -38 23l-193 265 l-193 -265q-17 -23 -38 -23q-15 0 -32 12l-121 88q-23 17 -23 38q0 15 12 32l193 265l-312 102q-36 11 -36 41z" />
<glyph unicode="+" horiz-adv-x="1200" d="M0 625v150q0 50 50 50h375v375q0 50 50 50h150q50 0 50 -50v-375h375q50 0 50 -50v-150q0 -50 -50 -50h-375v-375q0 -50 -50 -50h-150q-50 0 -50 50v375h-375q-50 0 -50 50z" />
<glyph unicode="," horiz-adv-x="350" d="M0 200q0 50 50 50h150q50 0 50 -50v-150q0 -50 -50 -100l-200 -200v450z" />
<glyph unicode="-" horiz-adv-x="1200" d="M0 625v150q0 50 50 50h1000q50 0 50 -50v-150q0 -50 -50 -50h-1000q-50 0 -50 50z" />
<glyph unicode="." horiz-adv-x="350" d="M0 50v150q0 50 50 50h150q50 0 50 -50v-150q0 -50 -50 -50h-150q-50 0 -50 50z" />
<glyph unicode="/" horiz-adv-x="900" d="M0 50l525 1300q25 50 50 50h175q50 0 50 -50l-500 -1300q-25 -50 -50 -50h-200q-50 0 -50 50z" />
<glyph unicode="0" d="M0 400v600q0 166 117 283t283 117h600q166 0 283 -117t117 -283v-600q0 -166 -117 -283t-283 -117h-600q-166 0 -283 117t-117 283zM250 400q0 -62 44 -106t106 -44h600q62 0 106 44t44 106v600q0 62 -44 106t-106 44h-600q-62 0 -106 -44t-44 -106v-600z" />
<glyph unicode="1" horiz-adv-x="500" d="M0 1200v150q0 50 50 50h300q50 0 50 -50v-1300q0 -50 -50 -50h-150q-50 0 -50 50v1100h-100q-50 0 -50 50z" />
<glyph unicode="2" d="M0 50v375q0 166 117 283t283 117h600q62 0 106 44t44 106v25q0 62 -44 106t-106 44h-950q-50 0 -50 50v150q0 50 50 50h950q166 0 283 -117t117 -283v-25q0 -166 -117 -283t-283 -117h-600q-62 0 -106 -44t-44 -106v-175h1100q50 0 50 -50v-150q0 -50 -50 -50h-1300 q-50 0 -50 50z" />
<glyph unicode="3" d="M0 50v150q0 50 50 50h950q62 0 106 44t44 100v31q0 62 -44 106t-106 44h-500l-200 249l700 1q62 0 106 44t44 100v31q0 62 -44 106t-106 44h-950q-50 0 -50 50v150q0 50 50 50h950q166 0 283 -117t117 -283v-25q0 -160 -109 -275q109 -115 109 -275v-25q0 -166 -117 -283 t-283 -117h-950q-50 0 -50 50z" />
<glyph unicode="4" d="M0 450v900q0 50 50 50h150q50 0 50 -50v-701l900 1v700q0 50 50 50h150q50 0 50 -50v-1300q0 -50 -50 -50h-150q-50 0 -50 50v350h-1100q-50 0 -50 50z" />
<glyph unicode="5" d="M0 50v150q0 50 50 50h950q62 0 106 44t44 106v25q0 62 -44 106t-106 44h-950q-50 0 -50 50v725q0 50 50 50h1300q50 0 50 -50v-150q0 -50 -50 -50h-1100v-325h750q166 0 283 -117t117 -283v-25q0 -166 -117 -283t-283 -117h-950q-50 0 -50 50z" />
<glyph unicode="6" d="M0 400v600q0 166 117 283t283 117h700q50 0 50 -50v-150q0 -50 -50 -50h-700q-62 0 -106 -44t-44 -106v-600q0 -62 44 -106t106 -44h600q62 0 106 44t44 106v100q0 62 -44 106t-106 44h-500l-200 250h700q166 0 283 -117t117 -283v-100q0 -166 -117 -283t-283 -117h-600 q-166 0 -283 117t-117 283z" />
<glyph unicode="7" d="M0 1200v150q0 50 50 50h1300q50 0 50 -50v-200q0 -25 -50 -100l-650 -1000q-25 -50 -50 -50h-250q-50 0 -50 50l725 1100h-1025q-50 0 -50 50z" />
<glyph unicode="8" d="M0 400v25q0 160 109 275q-109 115 -109 275v25q0 166 117 283t283 117h600q166 0 283 -117t117 -283v-25q0 -160 -109 -275q109 -115 109 -275v-25q0 -166 -117 -283t-283 -117h-600q-166 0 -283 117t-117 283zM250 400q0 -62 44 -106t106 -44h600q62 0 106 44t44 100v31 q0 62 -44 106t-106 44h-200l-1 1l-399 -1q-62 0 -106 -44t-44 -100v-31zM250 975q0 -62 44 -106t106 -44h200l1 -1l399 1q62 0 106 44t44 100v31q0 62 -44 106t-106 44h-600q-62 0 -106 -44t-44 -100v-31z" />
<glyph unicode="9" d="M0 900v100q0 166 117 283t283 117h600q166 0 283 -117t117 -283v-600q0 -166 -117 -283t-283 -117h-700q-50 0 -50 50v150q0 50 50 50h700q62 0 106 44t44 106v600q0 62 -44 106t-106 44h-600q-62 0 -106 -44t-44 -106v-100q0 -62 44 -106t106 -44h500l200 -250h-700 q-166 0 -283 117t-117 283z" />
<glyph unicode=":" horiz-adv-x="350" d="M0 50v150q0 50 50 50h150q50 0 50 -50v-150q0 -50 -50 -50h-150q-50 0 -50 50zM0 625v150q0 50 50 50h150q50 0 50 -50v-150q0 -50 -50 -50h-150q-50 0 -50 50z" />
<glyph unicode=";" horiz-adv-x="350" d="M0 200q0 50 50 50h150q50 0 50 -50v-150q0 -50 -50 -100l-200 -200v450zM0 625v150q0 50 50 50h150q50 0 50 -50v-150q0 -50 -50 -50h-150q-50 0 -50 50z" />
<glyph unicode="&#x3c;" horiz-adv-x="850" d="M0 700l425 500q35 50 75 50h250l-464 -550l464 -550h-250q-40 0 -75 50z" />
<glyph unicode="=" horiz-adv-x="1200" d="M0 400v150q0 50 50 50h1000q50 0 50 -50v-150q0 -50 -50 -50h-1000q-50 0 -50 50zM0 850v150q0 50 50 50h1000q50 0 50 -50v-150q0 -50 -50 -50h-1000q-50 0 -50 50z" />
<glyph unicode="&#x3e;" horiz-adv-x="850" d="M0 150l464 550l-464 550h250q40 0 75 -50l425 -500l-425 -500q-35 -50 -75 -50h-250z" />
<glyph unicode="?" d="M0 1200v150q0 50 50 50h950q166 0 283 -117t117 -283t-117 -283t-283 -117h-400q-62 0 -106 -44t-44 -106q0 -50 -50 -50h-150q-50 0 -50 50q0 166 117 283t283 117h400q62 0 106 44t44 106t-44 106t-106 44h-950q-50 0 -50 50zM200 50v150q0 50 50 50h150q50 0 50 -50 v-150q0 -50 -50 -50h-150q-50 0 -50 50z" />
<glyph unicode="@" horiz-adv-x="1400" d="M0 400v600q0 166 117 283t283 117h500q166 0 283 -117t117 -283v-625q0 -50 -50 -50h-450q-166 0 -283 117t-117 283v300q0 50 50 50h300l250 -250h-350v-100q0 -62 44 -106t106 -44h250v425q0 62 -44 106t-106 44h-500q-62 0 -106 -44t-44 -106v-600q0 -62 44 -106 t106 -44h850q50 0 50 -50v-150q0 -50 -50 -50h-850q-166 0 -283 117t-117 283z" />
<glyph unicode="A" d="M0 50l500 1300q25 50 50 50h300q25 0 50 -50l500 -1300q0 -50 -50 -50h-175q-25 0 -50 50l-425 1105l-425 -1105q-25 -50 -50 -50h-175q-50 0 -50 50z" />
<glyph unicode="B" d="M0 50v1300q0 50 50 50h950q166 0 283 -117t117 -283v-25q0 -160 -109 -275q109 -115 109 -275v-25q0 -166 -117 -283t-283 -117h-950q-50 0 -50 50zM250 250h750q62 0 106 44t44 100v31q0 62 -44 106t-106 44h-500l-200 249l700 1q62 0 106 44t44 100v31q0 62 -44 106 t-106 44h-750v-900z" />
<glyph unicode="C" d="M0 400v600q0 166 117 283t283 117h950q50 0 50 -50v-150q0 -50 -50 -50h-950q-62 0 -106 -44t-44 -106v-600q0 -62 44 -106t106 -44h950q50 0 50 -50v-150q0 -50 -50 -50h-950q-166 0 -283 117t-117 283z" />
<glyph unicode="D" d="M0 50v1300q0 50 50 50h950q166 0 283 -117t117 -283v-600q0 -166 -117 -283t-283 -117h-950q-50 0 -50 50zM250 250h750q62 0 106 44t44 106v600q0 62 -44 106t-106 44h-750v-900z" />
<glyph unicode="E" d="M0 400v950q0 50 50 50h1300q50 0 50 -50v-150q0 -50 -50 -50h-1100v-750q0 -62 44 -106t106 -44h950q50 0 50 -50v-150q0 -50 -50 -50h-950q-166 0 -283 117t-117 283zM300 824l1050 1q50 0 50 -50v-150q0 -50 -50 -50h-850z" />
<glyph unicode="F" d="M0 50v1300q0 50 50 50h1300q50 0 50 -50v-150q0 -50 -50 -50h-1100v-1100q0 -50 -50 -50h-150q-50 0 -50 50zM300 824l1050 1q50 0 50 -50v-150q0 -50 -50 -50h-850z" />
<glyph unicode="G" d="M0 400v600q0 166 117 283t283 117h950q50 0 50 -50v-150q0 -50 -50 -50h-950q-62 0 -106 -44t-44 -106v-600q0 -62 44 -106t106 -44h750v325l-450 1l-200 249h850q50 0 50 -50v-725q0 -50 -50 -50h-950q-166 0 -283 117t-117 283z" />
<glyph unicode="H" d="M0 50v1300q0 50 50 50h150q50 0 50 -50v-1300q0 -50 -50 -50h-150q-50 0 -50 50zM300 824l850 1v525q0 50 50 50h150q50 0 50 -50v-1300q0 -50 -50 -50h-150q-50 0 -50 50v525h-650z" />
<glyph unicode="I" horiz-adv-x="350" d="M0 50v1300q0 50 50 50h150q50 0 50 -50v-1300q0 -50 -50 -50h-150q-50 0 -50 50z" />
<glyph unicode="J" horiz-adv-x="1100" d="M0 50v150q0 50 50 50h250q186 0 318 132t132 318v650q1 49 50 50h151q49 0 49 -50v-650q0 -290 -205 -495t-495 -205h-250q-50 0 -50 50z" />
<glyph unicode="K" d="M0 50v1300q0 50 50 50h150q50 0 50 -50v-1300q0 -50 -50 -50h-150q-50 0 -50 50zM300 700l725 650q50 50 100 50h275l-775 -700l775 -700h-275q-50 0 -100 50z" />
<glyph unicode="L" d="M0 400v950q0 50 50 50h150q50 0 50 -50v-950q0 -62 44 -106t106 -44h950q50 0 50 -50v-150q0 -50 -50 -50h-950q-166 0 -283 117t-117 283z" />
<glyph unicode="M" horiz-adv-x="2100" d="M0 50l375 1300q25 50 50 50h250q25 0 50 -50l275 -953l275 953q25 50 50 50h250q25 0 50 -50l375 -1300q0 -50 -50 -50h-175q-25 0 -50 50l-275 953l-275 -953q-25 -50 -50 -50h-250q-25 0 -50 50l-275 953l-275 -953q-25 -50 -50 -50h-175q-50 0 -50 50z" />
<glyph unicode="N" d="M0 50v1300q0 50 50 50h325l775 -1173v1123q0 50 50 50h150q50 0 50 -50v-1300q0 -50 -50 -50h-325l-775 1173v-1123q0 -50 -50 -50h-150q-50 0 -50 50z" />
<glyph unicode="O" d="M0 700q0 290 205 495t495 205t495 -205t205 -495t-205 -495t-495 -205t-495 205t-205 495zM250 700q0 -186 132 -318t318 -132t318 132t132 318t-132 318t-318 132t-318 -132t-132 -318z" />
<glyph unicode="P" d="M0 50v1300q0 50 50 50h950q166 0 283 -117t117 -283v-25q0 -166 -117 -283t-283 -117h-500l-200 249l700 1q62 0 106 44t44 100v31q0 62 -44 106t-106 44h-750v-1100q0 -50 -50 -50h-150q-50 0 -50 50z" />
<glyph unicode="Q" d="M0 700q0 290 205 495t495 205t495 -205t205 -495q0 -164 -65 -300h-300q115 127 115 300q0 186 -132 318t-318 132t-318 -132t-132 -318t132 -318t318 -132h650q50 0 50 -50v-150q0 -50 -50 -50h-650q-290 0 -495 205t-205 495z" />
<glyph unicode="R" d="M0 50v1300q0 50 50 50h950q166 0 283 -117t117 -283v-25q0 -166 -117 -283t-283 -117h-158l558 -575h-250q-50 0 -101 50l-749 774h1l-1 1h700q62 0 106 44t44 100v31q0 62 -44 106t-106 44h-750v-1100q0 -50 -50 -50h-150q-50 0 -50 50z" />
<glyph unicode="S" d="M0 50v150q0 50 50 50h950q62 0 106 44t44 106v175h-1100q-50 0 -50 50v375q0 166 117 283t283 117h950q50 0 50 -50v-150q0 -50 -50 -50h-950q-62 0 -106 -44t-44 -106v-175h1100q50 0 50 -50v-375q0 -166 -117 -283t-283 -117h-950q-50 0 -50 50z" />
<glyph unicode="T" d="M0 1200v150q0 50 50 50h1300q50 0 50 -50v-150q0 -50 -50 -50h-525v-1100q0 -50 -50 -50h-150q-50 0 -50 50v1100h-525q-50 0 -50 50z" />
<glyph unicode="U" d="M0 400v950q0 50 50 50h150q50 0 50 -50v-950q0 -62 44 -106t106 -44h750v1100q0 50 50 50h150q50 0 50 -50v-1300q0 -50 -50 -50h-950q-166 0 -283 117t-117 283z" />
<glyph unicode="V" d="M0 1350q0 50 50 50h175q25 0 50 -50l425 -1105l425 1105q25 50 50 50h175q50 0 50 -50l-500 -1300q-25 -50 -50 -50h-300q-25 0 -50 50z" />
<glyph unicode="W" horiz-adv-x="2100" d="M0 1350q0 50 50 50h175q25 0 50 -50l275 -953l275 953q25 50 50 50h250q25 0 50 -50l275 -953l275 953q25 50 50 50h175q50 0 50 -50l-375 -1300q-25 -50 -50 -50h-250q-25 0 -50 50l-275 953l-275 -953q-25 -50 -50 -50h-250q-25 0 -50 50z" />
<glyph unicode="X" d="M0 0l557 700l-557 700h250q40 0 75 -50l375 -471l375 471q35 50 75 50h250l-557 -700l557 -700h-250q-40 0 -75 50l-375 471l-375 -471q-35 -50 -75 -50h-250z" />
<glyph unicode="Y" d="M0 1400h250q40 0 75 -50l375 -471l375 471q35 50 75 50h250l-575 -722v-628q0 -50 -50 -50h-150q-50 0 -50 50v628z" />
<glyph unicode="Z" d="M0 50v150q0 50 50 100l1000 850h-1000q-50 0 -50 50v150q0 50 50 50h1300q50 0 50 -50v-150q0 -50 -50 -100l-1000 -850h1000q50 0 50 -50v-150q0 -50 -50 -50h-1300q-50 0 -50 50z" />
<glyph unicode="[" horiz-adv-x="600" d="M0 -100v1600q0 50 50 50h400q50 0 50 -50v-150q0 -50 -50 -50h-200v-1200h200q50 0 50 -50v-150q0 -50 -50 -50h-400q-50 0 -50 50z" />
<glyph unicode="\" horiz-adv-x="900" d="M0 1350q0 50 50 50h175q25 0 50 -50l525 -1300q0 -50 -50 -50h-200q-25 0 -50 50z" />
<glyph unicode="]" horiz-adv-x="600" d="M0 50q0 50 50 50h200v1200h-200q-50 0 -50 50v150q0 50 50 50h400q50 0 50 -50v-1600q0 -50 -50 -50h-400q-50 0 -50 50v150z" />
<glyph unicode="^" horiz-adv-x="1400" d="M0 1550l450 400q50 50 75 50h250q25 0 75 -50l450 -400q0 -50 -50 -50h-225q-25 0 -75 50l-300 267l-300 -267q-50 -50 -75 -50h-225q-50 0 -50 50z" />
<glyph unicode="_" horiz-adv-x="1200" d="M0 -150q0 50 50 50h1000q50 0 50 -50v-150q0 -50 -50 -50h-1000q-50 0 -50 50v150z" />
<glyph unicode="`" horiz-adv-x="900" d="M0 1950q0 50 50 50h225q25 0 75 -50l450 -400q0 -50 -50 -50h-225q-25 0 -75 50z" />
<glyph unicode="a" horiz-adv-x="1200" d="M0 400v300q0 50 50 50h500l250 -250h-550v-100q0 -62 44 -106t106 -44h450v450q0 62 -44 106t-106 44h-650q-50 0 -50 50v150q0 50 50 50h650q166 0 283 -117t117 -283v-650q0 -50 -50 -50h-650q-166 0 -283 117t-117 283z" />
<glyph unicode="b" horiz-adv-x="1200" d="M0 50v1300q0 50 50 50h150q50 0 50 -50v-1100h450q62 0 106 44t44 106v300q0 62 -44 106t-106 44h-200l-200 250h400q166 0 283 -117t117 -283v-300q0 -166 -117 -283t-283 -117h-650q-50 0 -50 50z" />
<glyph unicode="c" horiz-adv-x="1200" d="M0 400v300q0 166 117 283t283 117h650q50 0 50 -50v-150q0 -50 -50 -50h-650q-62 0 -106 -44t-44 -106v-300q0 -62 44 -106t106 -44h650q50 0 50 -50v-150q0 -50 -50 -50h-650q-166 0 -283 117t-117 283z" />
<glyph unicode="d" horiz-adv-x="1200" d="M0 400v300q0 166 117 283t283 117h200l200 -250h-400q-62 0 -106 -44t-44 -106v-300q0 -62 44 -106t106 -44h450v1100q0 50 50 50h150q50 0 50 -50v-1300q0 -50 -50 -50h-650q-166 0 -283 117t-117 283z" />
<glyph unicode="e" horiz-adv-x="1200" d="M0 400v650q0 50 50 50h650q166 0 283 -117t117 -283v-300q0 -50 -50 -50h-500l-250 250h550v100q0 62 -44 106t-106 44h-450v-450q0 -62 44 -106t106 -44h650q50 0 50 -50v-150q0 -50 -50 -50h-650q-166 0 -283 117t-117 283z" />
<glyph unicode="f" horiz-adv-x="650" d="M0 50v950q0 166 117 283t283 117h100q50 0 50 -50v-150q0 -50 -50 -50h-100q-62 0 -106 -44t-44 -106v-50h250q50 0 50 -50v-150q0 -50 -50 -50h-250v-650q0 -50 -50 -50h-150q-50 0 -50 50z" />
<glyph unicode="g" horiz-adv-x="1200" d="M0 400v300q0 166 117 283t283 117h650q50 0 50 -50v-1050q0 -166 -117 -283t-283 -117h-100q-50 0 -50 50v150q0 50 50 50h100q62 0 106 44t44 106v850h-450q-62 0 -106 -44t-44 -106v-300q0 -62 44 -106t106 -44h200l200 -250h-400q-166 0 -283 117t-117 283z" />
<glyph unicode="h" horiz-adv-x="1200" d="M0 0v1350q0 50 50 50h150q50 0 50 -50v-250h450q166 0 283 -117t117 -283v-650q0 -50 -50 -50h-150q-50 0 -50 50v650q0 62 -44 106t-106 44h-450v-850h-250z" />
<glyph unicode="i" horiz-adv-x="350" d="M0 50v1000q0 50 50 50h150q50 0 50 -50v-1000q0 -50 -50 -50h-150q-50 0 -50 50zM0 1200v150q0 50 50 50h150q50 0 50 -50v-150q0 -50 -50 -50h-150q-50 0 -50 50z" />
<glyph unicode="j" horiz-adv-x="350" d="M-300 -200q0 50 50 50h100q62 0 106 44t44 106v1050q0 50 50 50h150q50 0 50 -50v-1050q0 -166 -117 -283t-283 -117h-100q-50 0 -50 50v150zM0 1200v150q0 50 50 50h150q50 0 50 -50v-150q0 -50 -50 -50h-150q-50 0 -50 50z" />
<glyph unicode="k" horiz-adv-x="1200" d="M0 50v1300q0 50 50 50h150q50 0 50 -50v-1300q0 -50 -50 -50h-150q-50 0 -50 50zM300 550l450 500q50 50 100 50h250l-500 -550l500 -550h-250q-50 0 -100 50z" />
<glyph unicode="l" horiz-adv-x="350" d="M0 50v1300q0 50 50 50h150q50 0 50 -50v-1300q0 -50 -50 -50h-150q-50 0 -50 50z" />
<glyph unicode="m" horiz-adv-x="1650" d="M0 50v1000q0 50 50 50h1100q166 0 283 -117t117 -283v-650q0 -50 -50 -50h-150q-50 0 -50 50v650q0 62 -44 106t-106 44h-250v-800q0 -50 -50 -50h-150q-50 0 -50 50v800h-400v-800q0 -50 -50 -50h-150q-50 0 -50 50z" />
<glyph unicode="n" horiz-adv-x="1200" d="M0 50v1000q0 50 50 50h650q166 0 283 -117t117 -283v-650q0 -50 -50 -50h-150q-50 0 -50 50v650q0 62 -44 106t-106 44h-450v-800q0 -50 -50 -50h-150q-50 0 -50 50z" />
<glyph unicode="o" horiz-adv-x="1200" d="M0 550q0 228 161 389t389 161t389 -161t161 -389t-161 -389t-389 -161t-389 161t-161 389zM250 550q0 -124 88 -212t212 -88t212 88t88 212t-88 212t-212 88t-212 -88t-88 -212z" />
<glyph unicode="p" horiz-adv-x="1200" d="M0 -250v1300q0 50 50 50h650q166 0 283 -117t117 -283v-300q0 -166 -117 -283t-283 -117h-200l-200 250h400q62 0 106 44t44 106v300q0 62 -44 106t-106 44h-450v-1100q0 -50 -50 -50h-150q-50 0 -50 50z" />
<glyph unicode="q" horiz-adv-x="1200" d="M0 400v300q0 166 117 283t283 117h650q50 0 50 -50v-1300q0 -50 -50 -50h-150q-50 0 -50 50v1100h-450q-62 0 -106 -44t-44 -106v-300q0 -62 44 -106t106 -44h200l200 -250h-400q-166 0 -283 117t-117 283z" />
<glyph unicode="r" horiz-adv-x="1000" d="M0 50v1000q0 50 50 50h450q166 0 283 -117t117 -283v-50q0 -50 -50 -50h-150q-50 0 -50 50v50q0 62 -44 106t-106 44h-250v-800q0 -50 -50 -50h-150q-50 0 -50 50z" />
<glyph unicode="s" horiz-adv-x="1200" d="M0 50v150q0 50 50 50h650q62 0 106 44t44 106v25h-800q-50 0 -50 50v225q0 166 117 283t283 117h650q50 0 50 -50v-150q0 -50 -50 -50h-650q-62 0 -106 -44t-44 -106v-25h800q50 0 50 -50v-225q0 -166 -117 -283t-283 -117h-650q-50 0 -50 50z" />
<glyph unicode="t" horiz-adv-x="650" d="M0 400v950q0 50 50 50h150q50 0 50 -50v-250h250q50 0 50 -50v-150q0 -50 -50 -50h-250v-450q0 -62 44 -106t106 -44h100q50 0 50 -50v-150q0 -50 -50 -50h-100q-166 0 -283 117t-117 283z" />
<glyph unicode="u" horiz-adv-x="1200" d="M0 400v650q0 50 50 50h150q50 0 50 -50v-650q0 -62 44 -106t106 -44h450v800q0 50 50 50h150q50 0 50 -50v-1000q0 -50 -50 -50h-650q-166 0 -283 117t-117 283z" />
<glyph unicode="v" horiz-adv-x="1200" d="M0 1050q0 50 50 50h175q25 0 50 -50l293 -733l257 733q25 50 50 50h175q50 0 50 -50l-350 -1000q-25 -50 -50 -50h-250q-25 0 -50 50z" />
<glyph unicode="w" horiz-adv-x="2050" d="M0 1050q0 50 50 50h175q25 0 50 -50l293 -733l257 733q25 50 50 50h200q25 0 50 -50l293 -733l257 733q25 50 50 50h175q50 0 50 -50l-350 -1000q-25 -50 -50 -50h-250q-25 0 -50 50l-267 667l-233 -667q-25 -50 -50 -50h-250q-25 0 -50 50z" />
<glyph unicode="x" horiz-adv-x="1250" d="M0 0l432 550l-432 550h250q40 0 75 -50l250 -321l250 321q35 50 75 50h250l-432 -550l432 -550h-250q-40 0 -75 50l-250 321l-250 -321q-35 -50 -75 -50h-250z" />
<glyph unicode="y" horiz-adv-x="1200" d="M0 400v650q0 50 50 50h150q50 0 50 -50v-650q0 -62 44 -106t106 -44h450v800q0 50 50 50h150q50 0 50 -50v-1050q0 -166 -117 -283t-283 -117h-100q-50 0 -50 50v150q0 50 50 50h100q62 0 106 44t44 100v6h-450q-166 0 -283 117t-117 283z" />
<glyph unicode="z" horiz-adv-x="1200" d="M0 50v150q0 49 49 99l651 551h-650q-50 0 -50 50v150q0 50 50 50h1000q50 0 50 -50v-150q0 -51 -50 -100l-650 -550h650q50 0 50 -50v-150q0 -50 -50 -50h-1000q-50 0 -50 50z" />
<glyph unicode="{" horiz-adv-x="950" d="M0 824l200 1q62 0 106 44t44 100v181q0 166 117 283t283 117h50q50 0 50 -50v-150q0 -50 -50 -50h-50q-62 0 -106 -44t-44 -106v-175q0 -160 -109 -275q109 -115 109 -275v-175q0 -62 44 -106t106 -44h50q50 0 50 -50v-150q0 -50 -50 -50h-50q-166 0 -283 117t-117 283 v175q0 62 -44 106t-106 44z" />
<glyph unicode="|" horiz-adv-x="350" d="M0 -100v1600q0 50 50 50h150q50 0 50 -50v-1600q0 -50 -50 -50h-150q-50 0 -50 50z" />
<glyph unicode="}" horiz-adv-x="950" d="M0 50q0 50 50 50h50q62 0 106 44t44 106v175q0 160 109 275q-109 115 -109 275v175q0 62 -44 106t-106 44h-50q-50 0 -50 50v150q0 50 50 50h50q166 0 283 -117t117 -283v-175q0 -62 44 -106t106 -44l200 -249l-200 -1q-62 0 -106 -44t-44 -100v-181q0 -166 -117 -283 t-283 -117h-50q-50 0 -50 50v150z" />
<glyph unicode="~" horiz-adv-x="1400" d="M0 1550v100q0 145 102.5 247.5t247.5 102.5t322.5 -125t277.5 -125q41 0 70.5 29.5t29.5 70.5v100q0 50 50 50h150q50 0 50 -50v-100q0 -145 -102.5 -247.5t-247.5 -102.5t-322.5 125t-277.5 125q-41 0 -70.5 -29.5t-29.5 -70.5v-100q0 -50 -50 -50h-150q-50 0 -50 50z " />
<glyph unicode="&#xa1;" horiz-adv-x="350" d="M0 50v900q0 50 50 50h150q50 0 50 -50v-900q0 -50 -50 -50h-150q-50 0 -50 50zM0 1200v150q0 50 50 50h150q50 0 50 -50v-150q0 -50 -50 -50h-150q-50 0 -50 50z" />
<glyph unicode="&#xa2;" horiz-adv-x="1200" d="M0 500v300q0 166 117 283t283 117h100v50q0 50 50 50h150q50 0 50 -50v-50h300q50 0 50 -50v-150q0 -50 -50 -50h-300v-600h300q50 0 50 -50v-150q0 -50 -50 -50h-300v-50q0 -50 -50 -50h-150q-50 0 -50 50v50h-100q-166 0 -283 117t-117 283zM250 500q0 -62 44 -106 t106 -44h100v600h-100q-62 0 -106 -44t-44 -106v-300z" />
<glyph unicode="&#xa3;" d="M0 50v150q0 50 50 50h178q-28 69 -28 150v175h-150q-50 0 -50 50v150q0 50 50 50h150v175q0 166 117 283t283 117h550q50 0 50 -50v-150q0 -50 -50 -50h-550q-62 0 -106 -44t-44 -106v-175h400q50 0 50 -50v-150q0 -50 -50 -50h-400v-175q0 -62 44 -106t106 -44h750 q50 0 50 -50v-150q0 -50 -50 -50h-1300q-50 0 -50 50z" />
<glyph unicode="&#xa4;" horiz-adv-x="1250" d="M0 150l217 277q-92 117 -92 273t92 273l-217 277h250q40 0 75 -50l68 -87q83 37 182 37t182 -37l68 87q35 50 75 50h250l-217 -277q92 -117 92 -273t-92 -273l217 -277h-250q-40 0 -75 50l-68 87q-83 -37 -182 -37t-182 37l-68 -87q-35 -50 -75 -50h-250zM375 700 q0 -83 58.5 -141.5t141.5 -58.5t141.5 58.5t58.5 141.5t-58.5 141.5t-141.5 58.5t-141.5 -58.5t-58.5 -141.5z" />
<glyph unicode="&#xa5;" d="M0 1400h250q40 0 75 -50l375 -471l375 471q35 50 75 50h250l-478 -600h278q50 0 50 -50v-150q0 -50 -50 -50h-375v-150h375q50 0 50 -50v-150q0 -50 -50 -50h-375v-100q0 -50 -50 -50h-150q-50 0 -50 50v100h-375q-50 0 -50 50v150q0 50 50 50h375v150h-375q-50 0 -50 50 v150q0 50 50 50h278z" />
<glyph unicode="&#xa6;" horiz-adv-x="350" d="M0 -100v650q0 50 50 50h150q50 0 50 -50v-650q0 -50 -50 -50h-150q-50 0 -50 50zM0 850v650q0 50 50 50h150q50 0 50 -50v-650q0 -50 -50 -50h-150q-50 0 -50 50z" />
<glyph unicode="&#xa7;" horiz-adv-x="1300" d="M0 50q0 50 50 50h750q62 0 106 44t44 106v167q-15 -18 -32 -35q-132 -132 -318 -132t-318 132q-85 85 -115 193h-117q-50 0 -50 50v525q0 166 117 283t283 117h750q50 0 50 -50v-150q0 -50 -50 -50h-750q-62 0 -106 -44t-44 -106v-167q15 18 32 35q132 132 318 132 t318 -132q85 -85 115 -193h117q50 0 50 -50v-525q0 -166 -117 -283t-283 -117h-750q-50 0 -50 50v150zM400 700q0 -83 58.5 -141.5t141.5 -58.5t141.5 58.5t58.5 141.5t-58.5 141.5t-141.5 58.5t-141.5 -58.5t-58.5 -141.5z" />
<glyph unicode="&#xa8;" horiz-adv-x="900" d="M0 1600v150q0 50 50 50h150q50 0 50 -50v-150q0 -50 -50 -50h-150q-50 0 -50 50zM550 1600v150q0 50 50 50h150q50 0 50 -50v-150q0 -50 -50 -50h-150q-50 0 -50 50z" />
<glyph unicode="&#xa9;" horiz-adv-x="1100" d="M0 1050q0 207 146.5 353.5t353.5 146.5t353.5 -146.5t146.5 -353.5t-146.5 -353.5t-353.5 -146.5t-353.5 146.5t-146.5 353.5zM50 1050q0 -186 132 -318t318 -132q162 0 283 100h-458q-83 0 -141.5 58.5t-58.5 141.5v300q0 83 58.5 141.5t141.5 58.5h458 q-121 100 -283 100q-186 0 -318 -132t-132 -318zM250 900q0 -31 22 -53t53 -22h475q25 0 25 -25v-61q125 130 125 311t-125 311v-61q0 -25 -25 -25h-475q-31 0 -53 -22t-22 -53v-300z" />
<glyph unicode="&#xaa;" horiz-adv-x="1600" d="M0 200v1100q0 200 200 200h1100q200 0 200 -200v-1100q0 -200 -200 -200h-1100q-200 0 -200 200zM25 200q1 -175 175 -175h1101q174 0 174 176v1099q0 175 -175 175h-1100q-174 0 -175 -175v-1100z" />
<glyph unicode="&#xab;" horiz-adv-x="1250" d="M0 700l425 500q35 50 75 50h250l-464 -550l464 -550h-250q-40 0 -75 50zM400 700l425 500q35 50 75 50h250l-464 -550l464 -550h-250q-40 0 -75 50z" />
<glyph unicode="&#xac;" horiz-adv-x="1600" d="M0 200v1100q0 200 200 200h1100q200 0 200 -200v-1100q0 -200 -200 -200h-1100q-200 0 -200 200zM25 200q1 -175 175 -175h1101q174 0 174 176v1099q0 175 -175 175h-1100q-174 0 -175 -175v-1100z" />
<glyph unicode="&#xad;" horiz-adv-x="1200" d="M0 625v150q0 50 50 50h1000q50 0 50 -50v-150q0 -50 -50 -50h-1000q-50 0 -50 50z" />
<glyph unicode="&#xae;" horiz-adv-x="1100" d="M0 1050q0 207 146.5 353.5t353.5 146.5t353.5 -146.5t146.5 -353.5t-146.5 -353.5t-353.5 -146.5t-353.5 146.5t-146.5 353.5zM50 1050q0 -162 100 -283v566q-100 -121 -100 -283zM217 700q121 -100 283 -100t283 100h-58q-25 0 -50 25l-375 387h1l-1 1h350q31 0 53 22 t22 50v15q0 31 -22 53t-53 22h-375v-550q0 -25 -25 -25h-33zM217 1400h433q83 0 141.5 -58.5t58.5 -141.5v-12q0 -83 -58.5 -141.5t-141.5 -58.5h-79l247 -256q132 132 132 318t-132 318t-318 132q-162 0 -283 -100z" />
<glyph unicode="&#xaf;" horiz-adv-x="1600" d="M0 200v1100q0 200 200 200h1100q200 0 200 -200v-1100q0 -200 -200 -200h-1100q-200 0 -200 200zM25 200q1 -175 175 -175h1101q174 0 174 176v1099q0 175 -175 175h-1100q-174 0 -175 -175v-1100z" />
<glyph unicode="&#xb0;" horiz-adv-x="1600" d="M0 200v1100q0 200 200 200h1100q200 0 200 -200v-1100q0 -200 -200 -200h-1100q-200 0 -200 200zM25 200q1 -175 175 -175h1101q174 0 174 176v1099q0 175 -175 175h-1100q-174 0 -175 -175v-1100z" />
<glyph unicode="&#xb1;" horiz-adv-x="1600" d="M0 200v1100q0 200 200 200h1100q200 0 200 -200v-1100q0 -200 -200 -200h-1100q-200 0 -200 200zM25 200q1 -175 175 -175h1101q174 0 174 176v1099q0 175 -175 175h-1100q-174 0 -175 -175v-1100z" />
<glyph unicode="&#xb2;" horiz-adv-x="1600" d="M0 200v1100q0 200 200 200h1100q200 0 200 -200v-1100q0 -200 -200 -200h-1100q-200 0 -200 200zM25 200q1 -175 175 -175h1101q174 0 174 176v1099q0 175 -175 175h-1100q-174 0 -175 -175v-1100z" />
<glyph unicode="&#xb3;" horiz-adv-x="1600" d="M0 200v1100q0 200 200 200h1100q200 0 200 -200v-1100q0 -200 -200 -200h-1100q-200 0 -200 200zM25 200q1 -175 175 -175h1101q174 0 174 176v1099q0 175 -175 175h-1100q-174 0 -175 -175v-1100z" />
<glyph unicode="&#xb4;" horiz-adv-x="900" d="M0 1550l450 400q50 50 75 50h225q50 0 50 -50l-450 -400q-50 -50 -75 -50h-225q-50 0 -50 50z" />
<glyph unicode="&#xb5;" horiz-adv-x="1200" d="M0 -250v1300q0 50 50 50h150q50 0 50 -50v-800h450q62 0 106 44t44 106v650q0 50 50 50h150q50 0 50 -50v-650q0 -166 -117 -283t-283 -117h-450v-250q0 -50 -50 -50h-150q-50 0 -50 50z" />
<glyph unicode="&#xb6;" horiz-adv-x="1029" d="M93 1086q0 157 107.5 253t285.5 96h443v-70h-127v-1365h-82v1365h-166v-1365h-84v738q-174 8 -275.5 102.5t-101.5 245.5z" />
<glyph unicode="&#xb7;" horiz-adv-x="350" d="M0 625v150q0 50 50 50h150q50 0 50 -50v-150q0 -50 -50 -50h-150q-50 0 -50 50z" />
<glyph unicode="&#xb8;" horiz-adv-x="650" d="M0 -200q0 50 50 50h100q62 0 106 44t44 106v200q0 50 50 50h150q50 0 50 -50v-200q0 -166 -117 -283t-283 -117h-100q-50 0 -50 50v150z" />
<glyph unicode="&#xb9;" horiz-adv-x="1600" d="M0 200v1100q0 200 200 200h1100q200 0 200 -200v-1100q0 -200 -200 -200h-1100q-200 0 -200 200zM25 200q1 -175 175 -175h1101q174 0 174 176v1099q0 175 -175 175h-1100q-174 0 -175 -175v-1100z" />
<glyph unicode="&#xba;" horiz-adv-x="1600" d="M0 200v1100q0 200 200 200h1100q200 0 200 -200v-1100q0 -200 -200 -200h-1100q-200 0 -200 200zM25 200q1 -175 175 -175h1101q174 0 174 176v1099q0 175 -175 175h-1100q-174 0 -175 -175v-1100z" />
<glyph unicode="&#xbb;" horiz-adv-x="1250" d="M0 150l464 550l-464 550h250q40 0 75 -50l425 -500l-425 -500q-35 -50 -75 -50h-250zM400 150l464 550l-464 550h250q40 0 75 -50l425 -500l-425 -500q-35 -50 -75 -50h-250z" />
<glyph unicode="&#xbc;" horiz-adv-x="1600" d="M0 200v1100q0 200 200 200h1100q200 0 200 -200v-1100q0 -200 -200 -200h-1100q-200 0 -200 200zM25 200q1 -175 175 -175h1101q174 0 174 176v1099q0 175 -175 175h-1100q-174 0 -175 -175v-1100z" />
<glyph unicode="&#xbd;" horiz-adv-x="1600" d="M0 200v1100q0 200 200 200h1100q200 0 200 -200v-1100q0 -200 -200 -200h-1100q-200 0 -200 200zM25 200q1 -175 175 -175h1101q174 0 174 176v1099q0 175 -175 175h-1100q-174 0 -175 -175v-1100z" />
<glyph unicode="&#xbe;" horiz-adv-x="1600" d="M0 200v1100q0 200 200 200h1100q200 0 200 -200v-1100q0 -200 -200 -200h-1100q-200 0 -200 200zM25 200q1 -175 175 -175h1101q174 0 174 176v1099q0 175 -175 175h-1100q-174 0 -175 -175v-1100z" />
<glyph unicode="&#xbf;" d="M0 400q0 166 117 283t283 117h400q62 0 106 44t44 106q0 50 50 50h150q50 0 50 -50q0 -166 -117 -283t-283 -117h-400q-62 0 -106 -44t-44 -106t44 -106t106 -44h950q50 0 50 -50v-150q0 -50 -50 -50h-950q-166 0 -283 117t-117 283zM950 1200v150q0 50 50 50h150 q50 0 50 -50v-150q0 -50 -50 -50h-150q-50 0 -50 50z" />
<glyph unicode="&#xc0;" d="M0 50l500 1300q25 50 50 50h300q25 0 50 -50l500 -1300q0 -50 -50 -50h-175q-25 0 -50 50l-425 1105l-425 -1105q-25 -50 -50 -50h-175q-50 0 -50 50zM300 1950q0 50 50 50h225q25 0 75 -50l450 -400q0 -50 -50 -50h-225q-25 0 -75 50z" />
<glyph unicode="&#xc1;" d="M0 50l500 1300q25 50 50 50h300q25 0 50 -50l500 -1300q0 -50 -50 -50h-175q-25 0 -50 50l-425 1105l-425 -1105q-25 -50 -50 -50h-175q-50 0 -50 50zM300 1550l450 400q50 50 75 50h225q50 0 50 -50l-450 -400q-50 -50 -75 -50h-225q-50 0 -50 50z" />
<glyph unicode="&#xc2;" d="M0 50l500 1300q25 50 50 50h300q25 0 50 -50l500 -1300q0 -50 -50 -50h-175q-25 0 -50 50l-425 1105l-425 -1105q-25 -50 -50 -50h-175q-50 0 -50 50zM50 1550l450 400q50 50 75 50h250q25 0 75 -50l450 -400q0 -50 -50 -50h-225q-25 0 -75 50l-300 267l-300 -267 q-50 -50 -75 -50h-225q-50 0 -50 50z" />
<glyph unicode="&#xc3;" d="M0 50l500 1300q25 50 50 50h300q25 0 50 -50l500 -1300q0 -50 -50 -50h-175q-25 0 -50 50l-425 1105l-425 -1105q-25 -50 -50 -50h-175q-50 0 -50 50zM50 1550v100q0 145 102.5 247.5t247.5 102.5t322.5 -125t277.5 -125q41 0 70.5 29.5t29.5 70.5v100q0 50 50 50h150 q50 0 50 -50v-100q0 -145 -102.5 -247.5t-247.5 -102.5t-322.5 125t-277.5 125q-41 0 -70.5 -29.5t-29.5 -70.5v-100q0 -50 -50 -50h-150q-50 0 -50 50z" />
<glyph unicode="&#xc4;" d="M0 50l500 1300q25 50 50 50h300q25 0 50 -50l500 -1300q0 -50 -50 -50h-175q-25 0 -50 50l-425 1105l-425 -1105q-25 -50 -50 -50h-175q-50 0 -50 50zM300 1600v150q0 50 50 50h150q50 0 50 -50v-150q0 -50 -50 -50h-150q-50 0 -50 50zM850 1600v150q0 50 50 50h150 q50 0 50 -50v-150q0 -50 -50 -50h-150q-50 0 -50 50z" />
<glyph unicode="&#xc5;" d="M0 50l500 1300q25 50 50 50h300q25 0 50 -50l500 -1300q0 -50 -50 -50h-175q-25 0 -50 50l-425 1105l-425 -1105q-25 -50 -50 -50h-175q-50 0 -50 50zM450 1750q0 104 73 177t177 73t177 -73t73 -177t-73 -177t-177 -73t-177 73t-73 177z" />
<glyph unicode="&#xc6;" horiz-adv-x="2350" d="M0 50l500 1300q25 50 50 50h300q25 0 50 -50l150 -390v390q0 50 50 50h1100q50 0 50 -50v-150q0 -50 -50 -50h-900v-750q0 -62 44 -106t106 -44h750q50 0 50 -50v-150q0 -50 -50 -50h-750q-37 0 -72 6q-11 -6 -28 -6h-175q-25 0 -50 50l-425 1105l-425 -1105 q-25 -50 -50 -50h-175q-50 0 -50 50zM1350 824l850 1q50 0 50 -50v-150q0 -50 -50 -50h-650z" />
<glyph unicode="&#xc7;" d="M0 400v600q0 166 117 283t283 117h950q50 0 50 -50v-150q0 -50 -50 -50h-950q-62 0 -106 -44t-44 -106v-600q0 -62 44 -106t106 -44h950q50 0 50 -50v-150q0 -50 -50 -50h-350q0 -166 -117 -283t-283 -117h-100q-50 0 -50 50v150q0 50 50 50h100q62 0 106 44t44 106h-350 q-166 0 -283 117t-117 283z" />
<glyph unicode="&#xc8;" d="M0 400v950q0 50 50 50h1300q50 0 50 -50v-150q0 -50 -50 -50h-1100v-750q0 -62 44 -106t106 -44h950q50 0 50 -50v-150q0 -50 -50 -50h-950q-166 0 -283 117t-117 283zM300 824l1050 1q50 0 50 -50v-150q0 -50 -50 -50h-850zM300 1950q0 50 50 50h225q25 0 75 -50 l450 -400q0 -50 -50 -50h-225q-25 0 -75 50z" />
<glyph unicode="&#xc9;" d="M0 400v950q0 50 50 50h1300q50 0 50 -50v-150q0 -50 -50 -50h-1100v-750q0 -62 44 -106t106 -44h950q50 0 50 -50v-150q0 -50 -50 -50h-950q-166 0 -283 117t-117 283zM300 824l1050 1q50 0 50 -50v-150q0 -50 -50 -50h-850zM300 1550l450 400q50 50 75 50h225 q50 0 50 -50l-450 -400q-50 -50 -75 -50h-225q-50 0 -50 50z" />
<glyph unicode="&#xca;" d="M0 400v950q0 50 50 50h1300q50 0 50 -50v-150q0 -50 -50 -50h-1100v-750q0 -62 44 -106t106 -44h950q50 0 50 -50v-150q0 -50 -50 -50h-950q-166 0 -283 117t-117 283zM50 1550l450 400q50 50 75 50h250q25 0 75 -50l450 -400q0 -50 -50 -50h-225q-25 0 -75 50l-300 267 l-300 -267q-50 -50 -75 -50h-225q-50 0 -50 50zM300 824l1050 1q50 0 50 -50v-150q0 -50 -50 -50h-850z" />
<glyph unicode="&#xcb;" d="M0 400v950q0 50 50 50h1300q50 0 50 -50v-150q0 -50 -50 -50h-1100v-750q0 -62 44 -106t106 -44h950q50 0 50 -50v-150q0 -50 -50 -50h-950q-166 0 -283 117t-117 283zM300 824l1050 1q50 0 50 -50v-150q0 -50 -50 -50h-850zM300 1600v150q0 50 50 50h150q50 0 50 -50 v-150q0 -50 -50 -50h-150q-50 0 -50 50zM850 1600v150q0 50 50 50h150q50 0 50 -50v-150q0 -50 -50 -50h-150q-50 0 -50 50z" />
<glyph unicode="&#xcc;" horiz-adv-x="625" d="M-275 1950q0 50 50 50h225q25 0 75 -50l450 -400q0 -50 -50 -50h-225q-25 0 -75 50zM0 50v1300q0 50 50 50h150q50 0 50 -50v-1300q0 -50 -50 -50h-150q-50 0 -50 50z" />
<glyph unicode="&#xcd;" horiz-adv-x="625" d="M-275 1550l450 400q50 50 75 50h225q50 0 50 -50l-450 -400q-50 -50 -75 -50h-225q-50 0 -50 50zM0 50v1300q0 50 50 50h150q50 0 50 -50v-1300q0 -50 -50 -50h-150q-50 0 -50 50z" />
<glyph unicode="&#xce;" horiz-adv-x="875" d="M-525 1550l450 400q50 50 75 50h250q25 0 75 -50l450 -400q0 -50 -50 -50h-225q-25 0 -75 50l-300 267l-300 -267q-50 -50 -75 -50h-225q-50 0 -50 50zM0 50v1300q0 50 50 50h150q50 0 50 -50v-1300q0 -50 -50 -50h-150q-50 0 -50 50z" />
<glyph unicode="&#xcf;" horiz-adv-x="625" d="M-275 1600v150q0 50 50 50h150q50 0 50 -50v-150q0 -50 -50 -50h-150q-50 0 -50 50zM0 50v1300q0 50 50 50h150q50 0 50 -50v-1300q0 -50 -50 -50h-150q-50 0 -50 50zM275 1600v150q0 50 50 50h150q50 0 50 -50v-150q0 -50 -50 -50h-150q-50 0 -50 50z" />
<glyph unicode="&#xd0;" d="M0 750v150q0 50 50 50h100v400q0 50 50 50h800q166 0 283 -117t117 -283v-600q0 -166 -117 -283t-283 -117h-800q-50 0 -50 50v650h-100q-50 0 -50 50zM400 250h600q62 0 106 44t44 106v600q0 62 -44 106t-106 44h-600v-200h450l200 -250h-650v-450z" />
<glyph unicode="&#xd1;" d="M0 50v1300q0 50 50 50h325l775 -1173v1123q0 50 50 50h150q50 0 50 -50v-1300q0 -50 -50 -50h-325l-775 1173v-1123q0 -50 -50 -50h-150q-50 0 -50 50zM50 1550v100q0 145 102.5 247.5t247.5 102.5t322.5 -125t277.5 -125q41 0 70.5 29.5t29.5 70.5v100q0 50 50 50h150 q50 0 50 -50v-100q0 -145 -102.5 -247.5t-247.5 -102.5t-322.5 125t-277.5 125q-41 0 -70.5 -29.5t-29.5 -70.5v-100q0 -50 -50 -50h-150q-50 0 -50 50z" />
<glyph unicode="&#xd2;" d="M0 700q0 290 205 495t495 205t495 -205t205 -495t-205 -495t-495 -205t-495 205t-205 495zM250 700q0 -186 132 -318t318 -132t318 132t132 318t-132 318t-318 132t-318 -132t-132 -318zM300 1950q0 50 50 50h225q25 0 75 -50l450 -400q0 -50 -50 -50h-225q-25 0 -75 50z " />
<glyph unicode="&#xd3;" d="M0 700q0 290 205 495t495 205t495 -205t205 -495t-205 -495t-495 -205t-495 205t-205 495zM250 700q0 -186 132 -318t318 -132t318 132t132 318t-132 318t-318 132t-318 -132t-132 -318zM300 1550l450 400q50 50 75 50h225q50 0 50 -50l-450 -400q-50 -50 -75 -50h-225 q-50 0 -50 50z" />
<glyph unicode="&#xd4;" d="M0 700q0 290 205 495t495 205t495 -205t205 -495t-205 -495t-495 -205t-495 205t-205 495zM50 1550l450 400q50 50 75 50h250q25 0 75 -50l450 -400q0 -50 -50 -50h-225q-25 0 -75 50l-300 267l-300 -267q-50 -50 -75 -50h-225q-50 0 -50 50zM250 700q0 -186 132 -318 t318 -132t318 132t132 318t-132 318t-318 132t-318 -132t-132 -318z" />
<glyph unicode="&#xd5;" d="M0 700q0 290 205 495t495 205t495 -205t205 -495t-205 -495t-495 -205t-495 205t-205 495zM50 1550v100q0 145 102.5 247.5t247.5 102.5t322.5 -125t277.5 -125q41 0 70.5 29.5t29.5 70.5v100q0 50 50 50h150q50 0 50 -50v-100q0 -145 -102.5 -247.5t-247.5 -102.5 t-322.5 125t-277.5 125q-41 0 -70.5 -29.5t-29.5 -70.5v-100q0 -50 -50 -50h-150q-50 0 -50 50zM250 700q0 -186 132 -318t318 -132t318 132t132 318t-132 318t-318 132t-318 -132t-132 -318z" />
<glyph unicode="&#xd6;" d="M0 700q0 290 205 495t495 205t495 -205t205 -495t-205 -495t-495 -205t-495 205t-205 495zM250 700q0 -186 132 -318t318 -132t318 132t132 318t-132 318t-318 132t-318 -132t-132 -318zM300 1600v150q0 50 50 50h150q50 0 50 -50v-150q0 -50 -50 -50h-150q-50 0 -50 50z M850 1600v150q0 50 50 50h150q50 0 50 -50v-150q0 -50 -50 -50h-150q-50 0 -50 50z" />
<glyph unicode="&#xd7;" horiz-adv-x="1250" d="M0 150l432 550l-432 550h250q40 0 75 -50l250 -321l250 321q35 50 75 50h250l-432 -550l432 -550h-250q-40 0 -75 50l-250 321l-250 -321q-35 -50 -75 -50h-250z" />
<glyph unicode="&#xd8;" d="M0 0l182 229q-182 198 -182 471q0 290 205 495t495 205q191 0 344 -88l31 38q35 50 75 50h250l-182 -229q182 -198 182 -471q0 -290 -205 -495t-495 -205q-191 0 -344 88l-31 -38q-35 -50 -75 -50h-250zM250 700q0 -154 91 -272l216 272l143 179l185 233q-85 38 -185 38 q-186 0 -318 -132t-132 -318zM515 288q85 -38 185 -38q186 0 318 132t132 318q0 154 -91 272l-216 -272l-143 -179z" />
<glyph unicode="&#xd9;" d="M0 400v950q0 50 50 50h150q50 0 50 -50v-950q0 -62 44 -106t106 -44h750v1100q0 50 50 50h150q50 0 50 -50v-1300q0 -50 -50 -50h-950q-166 0 -283 117t-117 283zM300 1950q0 50 50 50h225q25 0 75 -50l450 -400q0 -50 -50 -50h-225q-25 0 -75 50z" />
<glyph unicode="&#xda;" d="M0 400v950q0 50 50 50h150q50 0 50 -50v-950q0 -62 44 -106t106 -44h750v1100q0 50 50 50h150q50 0 50 -50v-1300q0 -50 -50 -50h-950q-166 0 -283 117t-117 283zM300 1550l450 400q50 50 75 50h225q50 0 50 -50l-450 -400q-50 -50 -75 -50h-225q-50 0 -50 50z" />
<glyph unicode="&#xdb;" d="M0 400v950q0 50 50 50h150q50 0 50 -50v-950q0 -62 44 -106t106 -44h750v1100q0 50 50 50h150q50 0 50 -50v-1300q0 -50 -50 -50h-950q-166 0 -283 117t-117 283zM50 1550l450 400q50 50 75 50h250q25 0 75 -50l450 -400q0 -50 -50 -50h-225q-25 0 -75 50l-300 267 l-300 -267q-50 -50 -75 -50h-225q-50 0 -50 50z" />
<glyph unicode="&#xdc;" d="M0 400v950q0 50 50 50h150q50 0 50 -50v-950q0 -62 44 -106t106 -44h750v1100q0 50 50 50h150q50 0 50 -50v-1300q0 -50 -50 -50h-950q-166 0 -283 117t-117 283zM300 1600v150q0 50 50 50h150q50 0 50 -50v-150q0 -50 -50 -50h-150q-50 0 -50 50zM850 1600v150 q0 50 50 50h150q50 0 50 -50v-150q0 -50 -50 -50h-150q-50 0 -50 50z" />
<glyph unicode="&#xdd;" d="M0 1400h250q40 0 75 -50l375 -471l375 471q35 50 75 50h250l-575 -722v-628q0 -50 -50 -50h-150q-50 0 -50 50v628zM300 1550l450 400q50 50 75 50h225q50 0 50 -50l-450 -400q-50 -50 -75 -50h-225q-50 0 -50 50z" />
<glyph unicode="&#xde;" d="M0 50v1300q0 50 50 50h150q50 0 50 -50v-200h750q166 0 283 -117t117 -283v-25q0 -166 -117 -283t-283 -117h-500l-200 249l700 1q62 0 106 44t44 100v31q0 62 -44 106t-106 44h-750v-850q0 -50 -50 -50h-150q-50 0 -50 50z" />
<glyph unicode="&#xdf;" d="M0 50v950q0 166 117 283t283 117h600q166 0 283 -117t117 -283v-25q0 -160 -109 -275q109 -115 109 -275v-25q0 -166 -117 -283t-283 -117h-550q-50 0 -50 50v150q0 50 50 50h550q62 0 106 44t44 100v31q0 62 -44 106t-106 44h-500l-200 249l700 1q62 0 106 44t44 100v31 q0 62 -44 106t-106 44h-600q-62 0 -106 -44t-44 -106v-950q0 -50 -50 -50h-150q-50 0 -50 50z" />
<glyph unicode="&#xe0;" horiz-adv-x="1200" d="M0 400v300q0 50 50 50h500l250 -250h-550v-100q0 -62 44 -106t106 -44h450v450q0 62 -44 106t-106 44h-650q-50 0 -50 50v150q0 50 50 50h650q166 0 283 -117t117 -283v-650q0 -50 -50 -50h-650q-166 0 -283 117t-117 283zM150 1700q0 50 50 50h225q25 0 75 -50l450 -400 q0 -50 -50 -50h-225q-25 0 -75 50z" />
<glyph unicode="&#xe1;" horiz-adv-x="1200" d="M0 400v300q0 50 50 50h500l250 -250h-550v-100q0 -62 44 -106t106 -44h450v450q0 62 -44 106t-106 44h-650q-50 0 -50 50v150q0 50 50 50h650q166 0 283 -117t117 -283v-650q0 -50 -50 -50h-650q-166 0 -283 117t-117 283zM150 1300l450 400q50 50 75 50h225q50 0 50 -50 l-450 -400q-50 -50 -75 -50h-225q-50 0 -50 50z" />
<glyph unicode="&#xe2;" horiz-adv-x="1300" d="M-100 1300l450 400q50 50 75 50h250q25 0 75 -50l450 -400q0 -50 -50 -50h-225q-25 0 -75 50l-300 267l-300 -267q-50 -50 -75 -50h-225q-50 0 -50 50zM0 400v300q0 50 50 50h500l250 -250h-550v-100q0 -62 44 -106t106 -44h450v450q0 62 -44 106t-106 44h-650 q-50 0 -50 50v150q0 50 50 50h650q166 0 283 -117t117 -283v-650q0 -50 -50 -50h-650q-166 0 -283 117t-117 283z" />
<glyph unicode="&#xe3;" horiz-adv-x="1300" d="M-100 1300v100q0 145 102.5 247.5t247.5 102.5t322.5 -125t277.5 -125q41 0 70.5 29.5t29.5 70.5v100q0 50 50 50h150q50 0 50 -50v-100q0 -145 -102.5 -247.5t-247.5 -102.5t-322.5 125t-277.5 125q-41 0 -70.5 -29.5t-29.5 -70.5v-100q0 -50 -50 -50h-150q-50 0 -50 50 zM0 400v300q0 50 50 50h500l250 -250h-550v-100q0 -62 44 -106t106 -44h450v450q0 62 -44 106t-106 44h-650q-50 0 -50 50v150q0 50 50 50h650q166 0 283 -117t117 -283v-650q0 -50 -50 -50h-650q-166 0 -283 117t-117 283z" />
<glyph unicode="&#xe4;" horiz-adv-x="1200" d="M0 400v300q0 50 50 50h500l250 -250h-550v-100q0 -62 44 -106t106 -44h450v450q0 62 -44 106t-106 44h-650q-50 0 -50 50v150q0 50 50 50h650q166 0 283 -117t117 -283v-650q0 -50 -50 -50h-650q-166 0 -283 117t-117 283zM150 1300v150q0 50 50 50h150q50 0 50 -50v-150 q0 -50 -50 -50h-150q-50 0 -50 50zM700 1300v150q0 50 50 50h150q50 0 50 -50v-150q0 -50 -50 -50h-150q-50 0 -50 50z" />
<glyph unicode="&#xe5;" horiz-adv-x="1200" d="M0 400v300q0 50 50 50h500l250 -250h-550v-100q0 -62 44 -106t106 -44h450v450q0 62 -44 106t-106 44h-650q-50 0 -50 50v150q0 50 50 50h650q166 0 283 -117t117 -283v-650q0 -50 -50 -50h-650q-166 0 -283 117t-117 283zM300 1450q0 104 73 177t177 73t177 -73t73 -177 t-73 -177t-177 -73t-177 73t-73 177z" />
<glyph unicode="&#xe6;" horiz-adv-x="1850" d="M0 400v300q0 50 50 50h400l250 -250h-450v-100q0 -62 44 -106t106 -44h350v450q0 62 -44 106t-106 44h-550q-50 0 -50 50v150q0 50 50 50h550q82 0 153 -29q9 29 47 29h550q166 0 283 -117t117 -283v-300q0 -50 -50 -50h-400l-250 250h450v100q0 62 -44 106t-106 44h-350 v-450q0 -62 44 -106t106 -44h550q50 0 50 -50v-150q0 -50 -50 -50h-550q-82 0 -153 29q-9 -29 -47 -29h-550q-166 0 -283 117t-117 283z" />
<glyph unicode="&#xe7;" horiz-adv-x="1200" d="M0 400v300q0 166 117 283t283 117h650q50 0 50 -50v-150q0 -50 -50 -50h-650q-62 0 -106 -44t-44 -106v-300q0 -62 44 -106t106 -44h650q50 0 50 -50v-150q0 -50 -50 -50h-250q0 -166 -117 -283t-283 -117h-100q-50 0 -50 50v150q0 50 50 50h100q62 0 106 44t44 106h-150 q-166 0 -283 117t-117 283z" />
<glyph unicode="&#xe8;" horiz-adv-x="1200" d="M0 400v650q0 50 50 50h650q166 0 283 -117t117 -283v-300q0 -50 -50 -50h-500l-250 250h550v100q0 62 -44 106t-106 44h-450v-450q0 -62 44 -106t106 -44h650q50 0 50 -50v-150q0 -50 -50 -50h-650q-166 0 -283 117t-117 283zM150 1700q0 50 50 50h225q25 0 75 -50 l450 -400q0 -50 -50 -50h-225q-25 0 -75 50z" />
<glyph unicode="&#xe9;" horiz-adv-x="1200" d="M0 400v650q0 50 50 50h650q166 0 283 -117t117 -283v-300q0 -50 -50 -50h-500l-250 250h550v100q0 62 -44 106t-106 44h-450v-450q0 -62 44 -106t106 -44h650q50 0 50 -50v-150q0 -50 -50 -50h-650q-166 0 -283 117t-117 283zM150 1300l450 400q50 50 75 50h225 q50 0 50 -50l-450 -400q-50 -50 -75 -50h-225q-50 0 -50 50z" />
<glyph unicode="&#xea;" horiz-adv-x="1300" d="M-100 1300l450 400q50 50 75 50h250q25 0 75 -50l450 -400q0 -50 -50 -50h-225q-25 0 -75 50l-300 267l-300 -267q-50 -50 -75 -50h-225q-50 0 -50 50zM0 400v650q0 50 50 50h650q166 0 283 -117t117 -283v-300q0 -50 -50 -50h-500l-250 250h550v100q0 62 -44 106 t-106 44h-450v-450q0 -62 44 -106t106 -44h650q50 0 50 -50v-150q0 -50 -50 -50h-650q-166 0 -283 117t-117 283z" />
<glyph unicode="&#xeb;" horiz-adv-x="1200" d="M0 400v650q0 50 50 50h650q166 0 283 -117t117 -283v-300q0 -50 -50 -50h-500l-250 250h550v100q0 62 -44 106t-106 44h-450v-450q0 -62 44 -106t106 -44h650q50 0 50 -50v-150q0 -50 -50 -50h-650q-166 0 -283 117t-117 283zM150 1300v150q0 50 50 50h150q50 0 50 -50 v-150q0 -50 -50 -50h-150q-50 0 -50 50zM700 1300v150q0 50 50 50h150q50 0 50 -50v-150q0 -50 -50 -50h-150q-50 0 -50 50z" />
<glyph unicode="&#xec;" horiz-adv-x="625" d="M-275 1700q0 50 50 50h225q25 0 75 -50l450 -400q0 -50 -50 -50h-225q-25 0 -75 50zM0 50v1000q0 50 50 50h150q50 0 50 -50v-1000q0 -50 -50 -50h-150q-50 0 -50 50z" />
<glyph unicode="&#xed;" horiz-adv-x="625" d="M-275 1300l450 400q50 50 75 50h225q50 0 50 -50l-450 -400q-50 -50 -75 -50h-225q-50 0 -50 50zM0 50v1000q0 50 50 50h150q50 0 50 -50v-1000q0 -50 -50 -50h-150q-50 0 -50 50z" />
<glyph unicode="&#xee;" horiz-adv-x="875" d="M-525 1300l450 400q50 50 75 50h250q25 0 75 -50l450 -400q0 -50 -50 -50h-225q-25 0 -75 50l-300 267l-300 -267q-50 -50 -75 -50h-225q-50 0 -50 50zM0 50v1000q0 50 50 50h150q50 0 50 -50v-1000q0 -50 -50 -50h-150q-50 0 -50 50z" />
<glyph unicode="&#xef;" horiz-adv-x="625" d="M-275 1300v150q0 50 50 50h150q50 0 50 -50v-150q0 -50 -50 -50h-150q-50 0 -50 50zM0 50v1000q0 50 50 50h150q50 0 50 -50v-1000q0 -50 -50 -50h-150q-50 0 -50 50zM275 1300v150q0 50 50 50h150q50 0 50 -50v-150q0 -50 -50 -50h-150q-50 0 -50 50z" />
<glyph unicode="&#xf0;" horiz-adv-x="1200" d="M0 400v300q0 166 117 283t283 117h300v50h-450q-50 0 -50 50v150q0 50 50 50h650q50 0 50 -50v-250h100q50 0 50 -25v-175q0 -50 -50 -50h-100v-800q0 -50 -50 -50h-500q-166 0 -283 117t-117 283zM250 400q0 -62 44 -106t106 -44h300v600h-300q-62 0 -106 -44t-44 -106 v-300z" />
<glyph unicode="&#xf1;" horiz-adv-x="1300" d="M-100 1250v100q0 145 102.5 247.5t247.5 102.5t322.5 -125t277.5 -125q41 0 70.5 29.5t29.5 70.5v100q0 50 50 50h150q50 0 50 -50v-100q0 -145 -102.5 -247.5t-247.5 -102.5t-322.5 125t-277.5 125q-41 0 -70.5 -29.5t-29.5 -70.5v-100q0 -50 -50 -50h-150q-50 0 -50 50 zM0 50v1000q0 50 50 50h650q166 0 283 -117t117 -283v-650q0 -50 -50 -50h-150q-50 0 -50 50v650q0 62 -44 106t-106 44h-450v-800q0 -50 -50 -50h-150q-50 0 -50 50z" />
<glyph unicode="&#xf2;" horiz-adv-x="1200" d="M0 550q0 228 161 389t389 161t389 -161t161 -389t-161 -389t-389 -161t-389 161t-161 389zM150 1700q0 50 50 50h225q25 0 75 -50l450 -400q0 -50 -50 -50h-225q-25 0 -75 50zM250 550q0 -124 88 -212t212 -88t212 88t88 212t-88 212t-212 88t-212 -88t-88 -212z" />
<glyph unicode="&#xf3;" horiz-adv-x="1200" d="M0 550q0 228 161 389t389 161t389 -161t161 -389t-161 -389t-389 -161t-389 161t-161 389zM150 1300l450 400q50 50 75 50h225q50 0 50 -50l-450 -400q-50 -50 -75 -50h-225q-50 0 -50 50zM250 550q0 -124 88 -212t212 -88t212 88t88 212t-88 212t-212 88t-212 -88 t-88 -212z" />
<glyph unicode="&#xf4;" horiz-adv-x="1300" d="M-100 1300l450 400q50 50 75 50h250q25 0 75 -50l450 -400q0 -50 -50 -50h-225q-25 0 -75 50l-300 267l-300 -267q-50 -50 -75 -50h-225q-50 0 -50 50zM0 550q0 228 161 389t389 161t389 -161t161 -389t-161 -389t-389 -161t-389 161t-161 389zM250 550q0 -124 88 -212 t212 -88t212 88t88 212t-88 212t-212 88t-212 -88t-88 -212z" />
<glyph unicode="&#xf5;" horiz-adv-x="1300" d="M-100 1300v100q0 145 102.5 247.5t247.5 102.5t322.5 -125t277.5 -125q41 0 70.5 29.5t29.5 70.5v100q0 50 50 50h150q50 0 50 -50v-100q0 -145 -102.5 -247.5t-247.5 -102.5t-322.5 125t-277.5 125q-41 0 -70.5 -29.5t-29.5 -70.5v-100q0 -50 -50 -50h-150q-50 0 -50 50 zM0 550q0 228 161 389t389 161t389 -161t161 -389t-161 -389t-389 -161t-389 161t-161 389zM250 550q0 -124 88 -212t212 -88t212 88t88 212t-88 212t-212 88t-212 -88t-88 -212z" />
<glyph unicode="&#xf6;" horiz-adv-x="1200" d="M0 550q0 228 161 389t389 161t389 -161t161 -389t-161 -389t-389 -161t-389 161t-161 389zM150 1300v150q0 50 50 50h150q50 0 50 -50v-150q0 -50 -50 -50h-150q-50 0 -50 50zM250 550q0 -124 88 -212t212 -88t212 88t88 212t-88 212t-212 88t-212 -88t-88 -212z M700 1300v150q0 50 50 50h150q50 0 50 -50v-150q0 -50 -50 -50h-150q-50 0 -50 50z" />
<glyph unicode="&#xf7;" horiz-adv-x="1200" d="M0 625v150q0 50 50 50h1000q50 0 50 -50v-150q0 -50 -50 -50h-1000q-50 0 -50 50zM425 225v150q0 50 50 50h150q50 0 50 -50v-150q0 -50 -50 -50h-150q-50 0 -50 50zM425 1025v150q0 50 50 50h150q50 0 50 -50v-150q0 -50 -50 -50h-150q-50 0 -50 50z" />
<glyph unicode="&#xf8;" horiz-adv-x="1250" d="M0 0l142 181q-142 155 -142 369q0 228 161 389t389 161q145 0 263 -65l12 15q35 50 75 50h250l-166 -211q116 -146 116 -339q0 -228 -161 -389t-389 -161q-123 0 -227 47q-34 -47 -73 -47h-250zM250 550q0 -94 51 -167l131 167l143 179l80 103q-49 18 -105 18 q-124 0 -212 -88t-88 -212zM486 256q31 -6 64 -6q124 0 212 88t88 212q0 71 -29 131l-103 -131l-143 -179z" />
<glyph unicode="&#xf9;" horiz-adv-x="1200" d="M0 400v650q0 50 50 50h150q50 0 50 -50v-650q0 -62 44 -106t106 -44h450v800q0 50 50 50h150q50 0 50 -50v-1000q0 -50 -50 -50h-650q-166 0 -283 117t-117 283zM150 1700q0 50 50 50h225q25 0 75 -50l450 -400q0 -50 -50 -50h-225q-25 0 -75 50z" />
<glyph unicode="&#xfa;" horiz-adv-x="1200" d="M0 400v650q0 50 50 50h150q50 0 50 -50v-650q0 -62 44 -106t106 -44h450v800q0 50 50 50h150q50 0 50 -50v-1000q0 -50 -50 -50h-650q-166 0 -283 117t-117 283zM150 1300l450 400q50 50 75 50h225q50 0 50 -50l-450 -400q-50 -50 -75 -50h-225q-50 0 -50 50z" />
<glyph unicode="&#xfb;" horiz-adv-x="1300" d="M-100 1300l450 400q50 50 75 50h250q25 0 75 -50l450 -400q0 -50 -50 -50h-225q-25 0 -75 50l-300 267l-300 -267q-50 -50 -75 -50h-225q-50 0 -50 50zM0 400v650q0 50 50 50h150q50 0 50 -50v-650q0 -62 44 -106t106 -44h450v800q0 50 50 50h150q50 0 50 -50v-1000 q0 -50 -50 -50h-650q-166 0 -283 117t-117 283z" />
<glyph unicode="&#xfc;" horiz-adv-x="1200" d="M0 400v650q0 50 50 50h150q50 0 50 -50v-650q0 -62 44 -106t106 -44h450v800q0 50 50 50h150q50 0 50 -50v-1000q0 -50 -50 -50h-650q-166 0 -283 117t-117 283zM150 1300v150q0 50 50 50h150q50 0 50 -50v-150q0 -50 -50 -50h-150q-50 0 -50 50zM700 1300v150 q0 50 50 50h150q50 0 50 -50v-150q0 -50 -50 -50h-150q-50 0 -50 50z" />
<glyph unicode="&#xfd;" horiz-adv-x="1200" d="M0 400v650q0 50 50 50h150q50 0 50 -50v-650q0 -62 44 -106t106 -44h450v800q0 50 50 50h150q50 0 50 -50v-1050q0 -166 -117 -283t-283 -117h-100q-50 0 -50 50v150q0 50 50 50h100q62 0 106 44t44 100v6h-450q-166 0 -283 117t-117 283zM150 1300l450 400q50 50 75 50 h225q50 0 50 -50l-450 -400q-50 -50 -75 -50h-225q-50 0 -50 50z" />
<glyph unicode="&#xfe;" horiz-adv-x="1200" d="M0 -250v1550q0 50 50 50h150q50 0 50 -50v-200h450q166 0 283 -117t117 -283v-300q0 -166 -117 -283t-283 -117h-200l-200 250h400q62 0 106 44t44 106v300q0 62 -44 106t-106 44h-450v-1100q0 -50 -50 -50h-150q-50 0 -50 50z" />
<glyph unicode="&#xff;" horiz-adv-x="1200" d="M0 400v650q0 50 50 50h150q50 0 50 -50v-650q0 -62 44 -106t106 -44h450v800q0 50 50 50h150q50 0 50 -50v-1050q0 -166 -117 -283t-283 -117h-100q-50 0 -50 50v150q0 50 50 50h100q62 0 106 44t44 100v6h-450q-166 0 -283 117t-117 283zM150 1300v150q0 50 50 50h150 q50 0 50 -50v-150q0 -50 -50 -50h-150q-50 0 -50 50zM700 1300v150q0 50 50 50h150q50 0 50 -50v-150q0 -50 -50 -50h-150q-50 0 -50 50z" />
<glyph unicode="&#x152;" horiz-adv-x="2550" d="M0 700q0 290 205 495t495 205q259 0 450 -163v113q0 50 50 50h1200q50 0 50 -50v-150q0 -50 -50 -50h-1000v-750q0 -62 44 -106t106 -44h850q50 0 50 -50v-150q0 -50 -50 -50h-850q-166 0 -283 117q-42 42 -69 91l-3 -3q-205 -205 -495 -205t-495 205t-205 495zM250 700 q0 -186 132 -318t318 -132t318 132t132 318t-132 318t-318 132t-318 -132t-132 -318zM1450 824l950 1q50 0 50 -50v-150q0 -50 -50 -50h-750z" />
<glyph unicode="&#x153;" horiz-adv-x="1950" d="M0 550q0 228 161 389t389 161q168 0 300 -88v38q0 50 50 50h550q166 0 283 -117t117 -283v-300q0 -50 -50 -50h-400l-250 250h450v100q0 62 -44 106t-106 44h-350v-450q0 -62 44 -106t106 -44h550q50 0 50 -50v-150q0 -50 -50 -50h-550q-166 0 -283 117q-18 18 -34 38 q-159 -155 -383 -155q-228 0 -389 161t-161 389zM250 550q0 -124 88 -212t212 -88t212 88t88 212t-88 212t-212 88t-212 -88t-88 -212z" />
<glyph unicode="&#x2c6;" horiz-adv-x="1400" d="M0 1550l450 400q50 50 75 50h250q25 0 75 -50l450 -400q0 -50 -50 -50h-225q-25 0 -75 50l-300 267l-300 -267q-50 -50 -75 -50h-225q-50 0 -50 50z" />
<glyph unicode="&#x2dc;" horiz-adv-x="1400" d="M0 1550v100q0 145 102.5 247.5t247.5 102.5t322.5 -125t277.5 -125q41 0 70.5 29.5t29.5 70.5v100q0 50 50 50h150q50 0 50 -50v-100q0 -145 -102.5 -247.5t-247.5 -102.5t-322.5 125t-277.5 125q-41 0 -70.5 -29.5t-29.5 -70.5v-100q0 -50 -50 -50h-150q-50 0 -50 50z " />
<glyph unicode="&#x2000;" horiz-adv-x="1000" />
<glyph unicode="&#x2001;" horiz-adv-x="2000" />
<glyph unicode="&#x2002;" horiz-adv-x="1000" />
<glyph unicode="&#x2003;" horiz-adv-x="2000" />
<glyph unicode="&#x2004;" horiz-adv-x="666" />
<glyph unicode="&#x2005;" horiz-adv-x="500" />
<glyph unicode="&#x2006;" horiz-adv-x="333" />
<glyph unicode="&#x2007;" horiz-adv-x="333" />
<glyph unicode="&#x2008;" horiz-adv-x="250" />
<glyph unicode="&#x2009;" horiz-adv-x="400" />
<glyph unicode="&#x200a;" horiz-adv-x="111" />
<glyph unicode="&#x2010;" horiz-adv-x="1200" d="M0 625v150q0 50 50 50h1000q50 0 50 -50v-150q0 -50 -50 -50h-1000q-50 0 -50 50z" />
<glyph unicode="&#x2011;" horiz-adv-x="1200" d="M0 625v150q0 50 50 50h1000q50 0 50 -50v-150q0 -50 -50 -50h-1000q-50 0 -50 50z" />
<glyph unicode="&#x2012;" horiz-adv-x="1200" d="M0 625v150q0 50 50 50h1000q50 0 50 -50v-150q0 -50 -50 -50h-1000q-50 0 -50 50z" />
<glyph unicode="&#x2013;" horiz-adv-x="1200" d="M0 625v150q0 50 50 50h1000q50 0 50 -50v-150q0 -50 -50 -50h-1000q-50 0 -50 50z" />
<glyph unicode="&#x2014;" horiz-adv-x="1425" d="M0 625v150q0 50 50 50h1225q50 0 50 -50v-150q0 -50 -50 -50h-1225q-50 0 -50 50z" />
<glyph unicode="&#x2018;" horiz-adv-x="350" d="M0 1200v150q0 50 50 50h150q50 0 50 -50v-450l-200 200q-50 50 -50 100z" />
<glyph unicode="&#x2019;" horiz-adv-x="350" d="M0 900v450q0 50 50 50h150q50 0 50 -50v-150q0 -50 -50 -100z" />
<glyph unicode="&#x201a;" horiz-adv-x="350" d="M0 200q0 50 50 50h150q50 0 50 -50v-150q0 -50 -50 -100l-200 -200v450z" />
<glyph unicode="&#x201c;" horiz-adv-x="700" d="M0 1200v150q0 50 50 50h150q50 0 50 -50v-450l-200 200q-50 50 -50 100zM350 1200v150q0 50 50 50h150q50 0 50 -50v-450l-200 200q-50 50 -50 100z" />
<glyph unicode="&#x201d;" horiz-adv-x="700" d="M0 900v450q0 50 50 50h150q50 0 50 -50v-150q0 -50 -50 -100zM350 900v450q0 50 50 50h150q50 0 50 -50v-150q0 -50 -50 -100z" />
<glyph unicode="&#x201e;" horiz-adv-x="700" d="M0 200q0 50 50 50h150q50 0 50 -50v-150q0 -50 -50 -100l-200 -200v450zM350 200q0 50 50 50h150q50 0 50 -50v-150q0 -50 -50 -100l-200 -200v450z" />
<glyph unicode="&#x2022;" horiz-adv-x="908" d="M216 718q0 123 87 209t210 86q122 0 208.5 -86.5t86.5 -208.5t-87.5 -209.5t-209.5 -87.5q-123 0 -209 87t-86 210z" />
<glyph unicode="&#x2026;" horiz-adv-x="1050" d="M0 50v150q0 50 50 50h150q50 0 50 -50v-150q0 -50 -50 -50h-150q-50 0 -50 50zM350 50v150q0 50 50 50h150q50 0 50 -50v-150q0 -50 -50 -50h-150q-50 0 -50 50zM700 50v150q0 50 50 50h150q50 0 50 -50v-150q0 -50 -50 -50h-150q-50 0 -50 50z" />
<glyph unicode="&#x202f;" horiz-adv-x="400" />
<glyph unicode="&#x2039;" horiz-adv-x="850" d="M0 700l425 500q35 50 75 50h250l-464 -550l464 -550h-250q-40 0 -75 50z" />
<glyph unicode="&#x203a;" horiz-adv-x="850" d="M0 150l464 550l-464 550h250q40 0 75 -50l425 -500l-425 -500q-35 -50 -75 -50h-250z" />
<glyph unicode="&#x205f;" horiz-adv-x="500" />
<glyph unicode="&#x20ac;" d="M0 450v150q0 50 50 50h150v100h-150q-50 0 -50 50v150q0 50 50 50h150q0 166 117 283t283 117h750q50 0 50 -50v-150q0 -50 -50 -50h-750q-62 0 -106 -44t-44 -106h600q50 0 50 -50v-150q0 -50 -50 -50h-600v-100h600q50 0 50 -50v-150q0 -50 -50 -50h-600q0 -62 44 -106 t106 -44h750q50 0 50 -50v-150q0 -50 -50 -50h-750q-166 0 -283 117t-117 283h-150q-50 0 -50 50z" />
<glyph unicode="&#x2122;" horiz-adv-x="1675" d="M0 1300v75q0 25 25 25h650q25 0 25 -25v-75q0 -25 -25 -25h-262v-550q0 -25 -25 -25h-75q-25 0 -25 25v550h-263q-25 0 -25 25zM575 725l188 650q12 25 25 25h125q12 0 25 -25l137 -476l138 476q12 25 25 25h125q12 0 25 -25l187 -650q0 -25 -25 -25h-87q-13 0 -25 25 l-138 477l-137 -477q-13 -25 -25 -25h-125q-13 0 -25 25l-138 477l-137 -477q-13 -25 -25 -25h-88q-25 0 -25 25z" />
<glyph unicode="&#x25fc;" horiz-adv-x="1100" d="M0 0v1100h1100v-1100h-1100z" />
</font>
</defs>
</svg>
